# xmcd
#
# Track frame offsets:
#	150
#	13560
#	26120
#	38870
#	51765
#	62577
#	75477
#	90642
#	100915
#	114442
#	127032
#	138260
#	153292
#	165615
#	180747
#	195815
#	207052
#	218287
#	236937
#	249745
#	263930
#	274060
#	284445
#	299895
#
# Disc length: 4172 seconds
#
# Revision: 4
# Processed by: cddbd v1.5.2PL0 Copyright (c) Steve Scherf et al.
# Submitted via: EasyCDDAExtractor 15.3.0.1
#
DISCID=57104a18
DTITLE=Cher - All I Really Want To Do, The Sonny Side Of Cher
DYEAR=1992
DGENRE=Pop
TTITLE0=All I Really Want To Do
TTITLE1=I Go To Sleep
TTITLE2=Needles And Pins
TTITLE3=Don't Think Twice, It's All Right
TTITLE4=He Thinks I Still Care
TTITLE5=Dream Baby
TTITLE6=The Bells Of Rhymney
TTITLE7=Girl Don't Come
TTITLE8=See See Blues (C.C. Rider)
TTITLE9=Come And Stay With Me
TTITLE10=Cry Myself To Sleep
TTITLE11=Blowin' In The Wind
TTITLE12=Bang Bang (My Baby Shot Me Down)
TTITLE13=A Young Girl (Une Enfante)
TTITLE14=Where Do You Go
TTITLE15=Our Day Will Come
TTITLE16=Elusive Butterfly
TTITLE17=Like A Rolling Stone
TTITLE18=Ol' Man River
TTITLE19=Come To Your Window
TTITLE20=The Girl From Ipanema
TTITLE21=It's Not Unusual
TTITLE22=Time
TTITLE23=Milord
EXTD=Produced by Sonny Bono\nRemixed by Ron Furmanek and Kevin Reeves\nEMI Rec
EXTD=ords USA 7-80241-2\n YEAR: 1992
EXTT0=
EXTT1=
EXTT2=
EXTT3=
EXTT4=
EXTT5=
EXTT6=
EXTT7=
EXTT8=
EXTT9=
EXTT10=
EXTT11=
EXTT12=
EXTT13=
EXTT14=
EXTT15=
EXTT16=
EXTT17=
EXTT18=
EXTT19=
EXTT20=
EXTT21=
EXTT22=
EXTT23=
PLAYORDER=
